<svg id="_001-twitter" data-name="001-twitter" xmlns="http://www.w3.org/2000/svg" xmlns:xlink="http://www.w3.org/1999/xlink" width="30" height="30" viewBox="0 0 30 30">
  <defs>
    <linearGradient id="linear-gradient" x1="0.332" y1="0.141" x2="0.585" y2="0.682" gradientUnits="objectBoundingBox">
      <stop offset="0" stop-color="#00c3ff"/>
      <stop offset="1" stop-color="#00b0ed"/>
    </linearGradient>
    <linearGradient id="linear-gradient-2" x1="0.738" y1="0.628" x2="-0.899" y2="-0.25" gradientUnits="objectBoundingBox">
      <stop offset="0" stop-color="#00b0ed" stop-opacity="0"/>
      <stop offset="1" stop-color="#00a2ce"/>
    </linearGradient>
    <linearGradient id="linear-gradient-3" x1="0.5" y1="0.27" x2="0.5" y2="0.926" xlink:href="#linear-gradient-2"/>
    <linearGradient id="linear-gradient-4" x1="0.946" y1="0.922" x2="0.342" y2="0.273" xlink:href="#linear-gradient-2"/>
  </defs>
  <path id="Path_12301" data-name="Path 12301" d="M24.634,29.486a90.613,90.613,0,0,1-19.268,0A5.463,5.463,0,0,1,.514,24.634a90.611,90.611,0,0,1,0-19.268A5.463,5.463,0,0,1,5.366.514a90.611,90.611,0,0,1,19.268,0,5.463,5.463,0,0,1,4.853,4.852,90.61,90.61,0,0,1,0,19.268A5.462,5.462,0,0,1,24.634,29.486Zm0,0" transform="translate(0 0)" fill="url(#linear-gradient)"/>
  <path id="Path_12302" data-name="Path 12302" d="M55,33.6a4.847,4.847,0,0,0-4.306-4.306,80.437,80.437,0,0,0-17.1,0A4.848,4.848,0,0,0,29.29,33.6a80.434,80.434,0,0,0,0,17.1A4.847,4.847,0,0,0,33.6,55a80.4,80.4,0,0,0,17.1,0A4.847,4.847,0,0,0,55,50.693,80.4,80.4,0,0,0,55,33.6Zm0,0" transform="translate(-27.144 -27.144)" fill="url(#linear-gradient-2)"/>
  <path id="Path_12303" data-name="Path 12303" d="M7.672,409.8q.031.311.064.622a5.462,5.462,0,0,0,4.853,4.852,90.578,90.578,0,0,0,19.268,0,5.461,5.461,0,0,0,4.852-4.852q.033-.311.064-.622Zm0,0" transform="translate(-7.222 -385.793)" fill="url(#linear-gradient-3)"/>
  <path id="Path_12304" data-name="Path 12304" d="M121.612,133.218l-6.227-6.227a7.432,7.432,0,0,1-1.776.743,5.09,5.09,0,0,1-.626.129,3.867,3.867,0,0,0-6.635,2.7c0,.077,0,.153.007.229a3.733,3.733,0,0,0,.07.544,10.592,10.592,0,0,1-6.553-2.62h0l-1.3-1.3a3.847,3.847,0,0,0,.719,4.693,4.273,4.273,0,0,0,.326.326l.029.031a3.788,3.788,0,0,1-1.7-.471,3.752,3.752,0,0,0,1.256,2.832l1.1,1.107a2.136,2.136,0,0,1-.961-.092,3.7,3.7,0,0,0,1.107,1.739l1.537,1.545a7.957,7.957,0,0,1-4.661,1.038l9.325,9.111a90.712,90.712,0,0,0,9.607-.514,5.462,5.462,0,0,0,4.853-4.852A90.769,90.769,0,0,0,121.612,133.218Zm0,0" transform="translate(-91.618 -119.272)" fill="url(#linear-gradient-4)"/>
  <path id="Path_12305" data-name="Path 12305" d="M115.912,128.492a6.994,6.994,0,0,1-1.995.554l-.008-.047a3.711,3.711,0,0,0,1.472-2.009,7.431,7.431,0,0,1-1.776.743,5.134,5.134,0,0,1-.626.129,3.867,3.867,0,0,0-6.635,2.7c0,.077,0,.153.007.229a3.726,3.726,0,0,0,.07.544,10.809,10.809,0,0,1-7.856-3.924,3.824,3.824,0,0,0,1.173,5.056,4.032,4.032,0,0,1-1.8-.476,3.868,3.868,0,0,0,3.151,3.81,3.659,3.659,0,0,1-1.759.037,3.73,3.73,0,0,0,3.517,2.675,7.7,7.7,0,0,1-5.535,1.647,10.927,10.927,0,0,0,16.761-9.238c0-.075,0-.151,0-.226,0-.045,0-.089,0-.134s0-.063,0-.094A6.838,6.838,0,0,0,115.912,128.492Zm0,0" transform="translate(-91.614 -119.272)" fill="#fff"/>
</svg>
