<svg id="_007-youtube" data-name="007-youtube" xmlns="http://www.w3.org/2000/svg" xmlns:xlink="http://www.w3.org/1999/xlink" width="30" height="30" viewBox="0 0 30 30">
  <defs>
    <linearGradient id="linear-gradient" x1="0.227" y1="-0.025" x2="0.948" y2="1.363" gradientUnits="objectBoundingBox">
      <stop offset="0" stop-color="#fffcf8"/>
      <stop offset="0.188" stop-color="#faf8f6"/>
      <stop offset="0.404" stop-color="#eceef2"/>
      <stop offset="0.635" stop-color="#d5dcea"/>
      <stop offset="0.875" stop-color="#b5c4df"/>
      <stop offset="1" stop-color="#a1b5d8"/>
    </linearGradient>
    <linearGradient id="linear-gradient-2" x1="0.369" y1="0.426" x2="-1.54" y2="-0.648" gradientUnits="objectBoundingBox">
      <stop offset="0" stop-color="#a1b5d8" stop-opacity="0"/>
      <stop offset="0.309" stop-color="#90a2bd" stop-opacity="0.31"/>
      <stop offset="0.755" stop-color="#7c8b9c" stop-opacity="0.757"/>
      <stop offset="1" stop-color="#748290"/>
    </linearGradient>
    <linearGradient id="linear-gradient-3" x1="0.5" y1="0.413" x2="0.5" y2="1.193" xlink:href="#linear-gradient-2"/>
    <linearGradient id="linear-gradient-4" x1="0.785" y1="0.754" x2="-0.068" y2="-0.216" xlink:href="#linear-gradient-2"/>
    <linearGradient id="linear-gradient-5" x1="0.439" y1="0.245" x2="0.587" y2="0.867" gradientUnits="objectBoundingBox">
      <stop offset="0" stop-color="#e52d27"/>
      <stop offset="1" stop-color="#b31217"/>
    </linearGradient>
  </defs>
  <path id="Path_12333" data-name="Path 12333" d="M24.634,29.486a90.613,90.613,0,0,1-19.268,0A5.463,5.463,0,0,1,.514,24.634a90.611,90.611,0,0,1,0-19.268A5.463,5.463,0,0,1,5.366.514a90.611,90.611,0,0,1,19.268,0,5.463,5.463,0,0,1,4.853,4.852,90.611,90.611,0,0,1,0,19.268A5.462,5.462,0,0,1,24.634,29.486Zm0,0" transform="translate(0 0)" fill="url(#linear-gradient)"/>
  <path id="Path_12334" data-name="Path 12334" d="M55,33.6a4.847,4.847,0,0,0-4.306-4.306,80.437,80.437,0,0,0-17.1,0A4.848,4.848,0,0,0,29.29,33.6a80.434,80.434,0,0,0,0,17.1A4.847,4.847,0,0,0,33.6,55a80.406,80.406,0,0,0,17.1,0A4.847,4.847,0,0,0,55,50.693,80.406,80.406,0,0,0,55,33.6Zm0,0" transform="translate(-27.144 -27.144)" fill="url(#linear-gradient-2)"/>
  <path id="Path_12335" data-name="Path 12335" d="M7.672,409.8q.031.311.064.622a5.462,5.462,0,0,0,4.853,4.852,90.578,90.578,0,0,0,19.268,0,5.461,5.461,0,0,0,4.852-4.852q.033-.311.064-.622Zm0,0" transform="translate(-7.222 -385.793)" fill="url(#linear-gradient-3)"/>
  <path id="Path_12336" data-name="Path 12336" d="M119.084,170.521a5.462,5.462,0,0,0,4.852-4.853q.45-4.208.506-8.425l-6.517-6.516c-.335-.415-.637-.453-1.264-.576a10.174,10.174,0,0,0-1.545-.187c-1.653-.065-3.308-.127-4.962-.143a58.176,58.176,0,0,0-7.278.266,2.549,2.549,0,0,0-2.264,2.055c-.061.573-.166,1.143-.2,1.717a31.855,31.855,0,0,0,.148,6.267,1.812,1.812,0,0,0,.676,1.406l9.493,9.493Q114.909,170.966,119.084,170.521Zm0,0" transform="translate(-94.45 -141.035)" fill="url(#linear-gradient-4)"/>
  <path id="Path_12337" data-name="Path 12337" d="M107.129,158.712c-2.422-.081-4.3-.127-6.168-.217a6.569,6.569,0,0,1-1.7-.281,2.4,2.4,0,0,1-1.712-2.1,31.848,31.848,0,0,1-.148-6.267c.033-.575.138-1.144.2-1.718a2.549,2.549,0,0,1,2.264-2.055,58.156,58.156,0,0,1,7.278-.266c1.654.016,3.308.078,4.962.143a10.219,10.219,0,0,1,1.545.188,2.314,2.314,0,0,1,1.965,2.044,21.92,21.92,0,0,1,.281,4.6c-.042,1.164-.162,2.326-.283,3.485a2.4,2.4,0,0,1-2.238,2.1C111.113,158.512,108.85,158.618,107.129,158.712Zm0,0" transform="translate(-91.615 -137.255)" fill="url(#linear-gradient-5)"/>
  <path id="Path_12338" data-name="Path 12338" d="M225.8,212.333l4.659-2.861-4.659-2.863Zm0,0" transform="translate(-212.57 -194.503)" fill="#fff"/>
</svg>
