<svg id="_011-instagram" data-name="011-instagram" xmlns="http://www.w3.org/2000/svg" xmlns:xlink="http://www.w3.org/1999/xlink" width="30" height="30" viewBox="0 0 30 30">
  <defs>
    <radialGradient id="radial-gradient" cx="0.205" cy="0.874" r="1.103" gradientUnits="objectBoundingBox">
      <stop offset="0" stop-color="#fae100"/>
      <stop offset="0.054" stop-color="#fadc04"/>
      <stop offset="0.117" stop-color="#fbce0e"/>
      <stop offset="0.183" stop-color="#fcb720"/>
      <stop offset="0.251" stop-color="#fe9838"/>
      <stop offset="0.305" stop-color="#ff7950"/>
      <stop offset="0.492" stop-color="#ff1c74"/>
      <stop offset="1" stop-color="#6c1cd1"/>
    </radialGradient>
    <linearGradient id="linear-gradient" x1="0.369" y1="0.426" x2="-1.54" y2="-0.648" gradientUnits="objectBoundingBox">
      <stop offset="0" stop-color="#a1b5d8" stop-opacity="0"/>
      <stop offset="0.309" stop-color="#90a2bd" stop-opacity="0.31"/>
      <stop offset="0.755" stop-color="#7c8b9c" stop-opacity="0.757"/>
      <stop offset="1" stop-color="#748290"/>
    </linearGradient>
    <linearGradient id="linear-gradient-2" x1="0.5" y1="0.413" x2="0.5" y2="1.193" gradientUnits="objectBoundingBox">
      <stop offset="0" stop-color="#fae100" stop-opacity="0"/>
      <stop offset="0.307" stop-color="#fca800" stop-opacity="0.306"/>
      <stop offset="0.627" stop-color="#fe7300" stop-opacity="0.627"/>
      <stop offset="0.868" stop-color="#ff5200" stop-opacity="0.867"/>
      <stop offset="1" stop-color="#ff4500"/>
    </linearGradient>
    <linearGradient id="linear-gradient-3" x1="0.316" y1="0.311" x2="0.012" y2="0.005" gradientUnits="objectBoundingBox">
      <stop offset="0" stop-color="#833ab4" stop-opacity="0"/>
      <stop offset="1" stop-color="#833ab4"/>
    </linearGradient>
    <linearGradient id="linear-gradient-4" x1="0.582" y1="0.887" x2="0.418" y2="0.113" xlink:href="#linear-gradient-3"/>
    <linearGradient id="linear-gradient-5" x1="0.605" y1="0.605" x2="-0.16" y2="-0.16" xlink:href="#linear-gradient-3"/>
    <linearGradient id="linear-gradient-6" x1="0.376" y1="0.332" x2="-0.072" y2="-0.063" xlink:href="#linear-gradient-3"/>
    <linearGradient id="linear-gradient-7" x1="0.816" y1="0.182" x2="0.172" y2="0.835" gradientUnits="objectBoundingBox">
      <stop offset="0" stop-color="#833ab4"/>
      <stop offset="0.092" stop-color="#9c3495"/>
      <stop offset="0.293" stop-color="#dc2546"/>
      <stop offset="0.392" stop-color="#fd1d1d"/>
      <stop offset="0.559" stop-color="#fc6831"/>
      <stop offset="0.689" stop-color="#fc9b40"/>
      <stop offset="0.752" stop-color="#fcaf45"/>
      <stop offset="0.781" stop-color="#fdb750"/>
      <stop offset="0.866" stop-color="#fecb6a"/>
      <stop offset="0.942" stop-color="#ffd87a"/>
      <stop offset="1" stop-color="#ffdc80"/>
    </linearGradient>
  </defs>
  <path id="Path_12361" data-name="Path 12361" d="M29.486,5.366A5.462,5.462,0,0,0,24.634.514a90.611,90.611,0,0,0-19.268,0A5.463,5.463,0,0,0,.514,5.366a90.611,90.611,0,0,0,0,19.268,5.463,5.463,0,0,0,4.852,4.853,90.613,90.613,0,0,0,19.268,0,5.462,5.462,0,0,0,4.852-4.853A90.611,90.611,0,0,0,29.486,5.366Zm0,0" transform="translate(0 0)" fill="url(#radial-gradient)"/>
  <path id="Path_12362" data-name="Path 12362" d="M55,33.6a4.847,4.847,0,0,0-4.306-4.306,80.437,80.437,0,0,0-17.1,0A4.848,4.848,0,0,0,29.29,33.6a80.434,80.434,0,0,0,0,17.1A4.847,4.847,0,0,0,33.6,55a80.406,80.406,0,0,0,17.1,0A4.847,4.847,0,0,0,55,50.693,80.406,80.406,0,0,0,55,33.6Zm0,0" transform="translate(-27.144 -27.144)" fill="url(#linear-gradient)"/>
  <path id="Path_12363" data-name="Path 12363" d="M7.672,409.8q.031.311.064.622a5.462,5.462,0,0,0,4.853,4.852,90.578,90.578,0,0,0,19.268,0,5.461,5.461,0,0,0,4.852-4.852q.033-.311.064-.622Zm0,0" transform="translate(-7.222 -385.793)" fill="url(#linear-gradient-2)"/>
  <path id="Path_12364" data-name="Path 12364" d="M119,116.249a90.7,90.7,0,0,0,.51-10.353l-6.857-6.857a4.912,4.912,0,0,0-3.578-1.641c-3.024-.109-6.057-.1-9.081,0a4.853,4.853,0,0,0-4.719,4.256c-.079.438-.127.882-.19,1.323v7.274c.035.236.085.47.1.707a5.288,5.288,0,0,0,1.714,3.676l6.978,6.978a90.68,90.68,0,0,0,10.269-.511A5.462,5.462,0,0,0,119,116.249Zm0,0" transform="translate(-89.518 -91.615)" fill="url(#linear-gradient-3)"/>
  <path id="Path_12365" data-name="Path 12365" d="M148.343,143.972a5.462,5.462,0,0,1-4.852,4.852,90.73,90.73,0,0,1-10.269.511l-6.968-6.968a4.885,4.885,0,0,0,3.082,1.184c3.024.114,6.058.111,9.081,0a4.86,4.86,0,0,0,4.8-4.858c.091-2.9.091-5.815,0-8.718A5.061,5.061,0,0,0,142,126.766l6.853,6.853A90.776,90.776,0,0,1,148.343,143.972Zm0,0" transform="translate(-118.856 -119.338)" fill="url(#linear-gradient-4)"/>
  <path id="Path_12366" data-name="Path 12366" d="M182.337,175.549a4.8,4.8,0,1,0-6.788,6.788l11.118,11.117q.883-.077,1.765-.171a5.463,5.463,0,0,0,4.853-4.853q.094-.882.171-1.765Zm0,0" transform="translate(-163.797 -163.797)" fill="url(#linear-gradient-5)"/>
  <path id="Path_12367" data-name="Path 12367" d="M334.284,160.141l-8.948-8.947a1.142,1.142,0,1,0-1.6,1.6l10.388,10.388Q334.23,161.662,334.284,160.141Zm0,0" transform="translate(-304.343 -141.91)" fill="url(#linear-gradient-6)"/>
  <path id="Path_12368" data-name="Path 12368" d="M95.09,102.976c.063-.441.11-.885.19-1.323A4.853,4.853,0,0,1,100,97.4c3.024-.1,6.058-.109,9.081,0a4.86,4.86,0,0,1,4.8,4.857q.136,4.356,0,8.719a4.859,4.859,0,0,1-4.8,4.857c-3.024.109-6.058.112-9.081,0a4.944,4.944,0,0,1-4.807-4.87c-.016-.237-.067-.472-.1-.707Zm9.431,11.233c1.384,0,2.769.041,4.151-.01a3.376,3.376,0,0,0,3.55-3.538q.094-4.046,0-8.1a3.355,3.355,0,0,0-3.55-3.534q-4.124-.087-8.25,0a3.335,3.335,0,0,0-3.544,3.482q-.111,4.1,0,8.2a3.357,3.357,0,0,0,3.545,3.487C101.786,114.25,103.154,114.209,104.521,114.209Zm0,0" transform="translate(-89.518 -91.615)" fill="url(#linear-gradient-7)"/>
  <g id="Group_9495" data-name="Group 9495" transform="translate(5.572 5.702)">
    <path id="Path_12369" data-name="Path 12369" d="M95.09,102.976c.063-.441.11-.885.19-1.323A4.853,4.853,0,0,1,100,97.4c3.024-.1,6.058-.109,9.081,0a4.86,4.86,0,0,1,4.8,4.857q.136,4.356,0,8.719a4.859,4.859,0,0,1-4.8,4.857c-3.024.109-6.058.112-9.081,0a4.944,4.944,0,0,1-4.807-4.87c-.016-.237-.067-.472-.1-.707Zm9.431,11.233c1.384,0,2.769.041,4.151-.01a3.376,3.376,0,0,0,3.55-3.538q.094-4.046,0-8.1a3.355,3.355,0,0,0-3.55-3.534q-4.124-.087-8.25,0a3.335,3.335,0,0,0-3.544,3.482q-.111,4.1,0,8.2a3.357,3.357,0,0,0,3.545,3.487C101.786,114.25,103.154,114.209,104.521,114.209Zm0,0" transform="translate(-95.09 -97.317)" fill="#fff"/>
    <path id="Path_12370" data-name="Path 12370" d="M178.8,174a4.8,4.8,0,1,0,4.8,4.8A4.805,4.805,0,0,0,178.8,174Zm0,7.956a3.151,3.151,0,1,1,3.151-3.151A3.151,3.151,0,0,1,178.8,181.952Zm0,0" transform="translate(-169.369 -169.503)" fill="#fff"/>
    <path id="Path_12371" data-name="Path 12371" d="M325.571,151.885a1.143,1.143,0,1,1-1.143-1.143A1.143,1.143,0,0,1,325.571,151.885Zm0,0" transform="translate(-309.914 -147.612)" fill="#fff"/>
  </g>
</svg>
